<svg 
	height="30px"
	width="30px"
	xmlns="http://www.w3.org/2000/svg" 
	xmlns:xlink="http://www.w3.org/1999/xlink" 
	version="1.1" 
	x="0px" 
	y="0px" 
	viewBox="0 0 100 94.01249999999999" 
	enable-background="new 0 0 100 75.21" 
	xml:space="preserve">
<path stroke="#000" fill="#F00" stroke-width="3" d="M98.777,55.808h-2.651l-4.047-18.146c-1.14-5.114-5.061-7.989-8.767-6.427l-1.096,0.465v-20.03h4.705V7.78V3.889V2.881  C86.922,1.292,85.633,0,84.04,0H38.475c-4.296,0-7.779,3.485-7.779,7.78h4.761L17.622,40.722c-0.002,0.004-0.003,0.009-0.005,0.011  h-0.002c-5.118,0-9.881,3.053-12.63,8.094l-4.617,8.467c-0.461,0.844-0.491,1.916-0.078,2.791c0.412,0.88,1.2,1.424,2.058,1.424  h2.077c1.238-7.606,7.852-13.436,15.805-13.436c2.939,0,5.695,0.8,8.065,2.188c0.707,0.415,1.381,0.88,2.014,1.395  c1.606,1.304,2.956,2.913,3.96,4.739c0.44,0.797,0.81,1.639,1.11,2.514c0.416,1.213,0.69,2.492,0.802,3.816h26.072  c0.006-0.063,0.009-0.129,0.016-0.192c0.214-2.208,0.877-4.283,1.897-6.138c2.219-4.032,6.121-7.011,10.753-7.979  c1.062-0.224,2.161-0.343,3.286-0.343c1.385,0,2.729,0.179,4.012,0.511c4.091,1.058,7.552,3.698,9.692,7.225  c1.211,1.997,1.998,4.28,2.234,6.724h3.48h1.153c0.637,0,1.151-0.517,1.151-1.151v-4.421C99.929,56.322,99.414,55.808,98.777,55.808  z M64.161,39.319c-3.32,1.4-6.141,4.464-7.909,8.592l-3.634,8.482h-13l-2.868-9.11l7.167-5.257l1.55,1.999  c0.65,0.838,1.856,0.99,2.694,0.342l1.002-0.775c0.837-0.652,0.99-1.859,0.341-2.695l-5.263-6.791  c-0.651-0.838-1.856-0.991-2.694-0.339l-1.001,0.775c-0.838,0.649-0.991,1.855-0.341,2.695l1.359,1.751l-6.032,4.424l-0.578-1.836  c-0.157-0.501-0.622-0.844-1.146-0.844h-7.892L43.756,7.78h22.037c1.345,2.323,3.851,3.889,6.729,3.889h2.397v23.109L64.161,39.319z  "/>
<path stroke="#000" fill="#F00" stroke-width="3" d="M81.402,53.538c-1.013-0.304-2.085-0.473-3.197-0.473c-0.894,0-1.761,0.11-2.593,0.311c-2.047,0.494-3.87,1.557-5.292,3.018  c-1.598,1.635-2.688,3.765-3.024,6.138c-0.009,0.063-0.016,0.129-0.023,0.192c-0.055,0.448-0.087,0.901-0.087,1.363  c0,6.087,4.934,11.022,11.02,11.022c6.087,0,11.021-4.936,11.021-11.022c0-0.527-0.038-1.048-0.11-1.556  C88.511,58.252,85.45,54.764,81.402,53.538z"/>
<path stroke="#000" fill="#F00" stroke-width="3" d="M20.229,75.109c6.086,0,11.02-4.936,11.02-11.022c0-0.462-0.032-0.915-0.086-1.363c-0.062-0.496-0.154-0.982-0.278-1.456  c-0.219-0.829-0.533-1.619-0.928-2.36c-1.854-3.477-5.515-5.842-9.728-5.842c-5.199,0-9.553,3.6-10.715,8.442  c-0.199,0.828-0.307,1.691-0.307,2.579C9.208,70.174,14.142,75.109,20.229,75.109z"/>
</svg>